<svg xmlns="http://www.w3.org/2000/svg" width="368" height="368"><path fill="#CB0056" fill-rule="evenodd" d="M184 368a184 184 0 1 1 0-368 184 184 0 0 1 0 368zm-61.8-65.8l13.3-13.2h76.2c10.3 0 20-4.4 26.8-12.2l50.8-58.1a15 15 0 0 0-1.8-21.4c-6.5-5-15.8-4.2-21.2 2L241 228v.4a26 26 0 0 1-26.2 24.8h-27.5a5.6 5.6 0 1 1 0-11.2h27.5a14.4 14.4 0 1 0 .6-28.8h-45.8l-7.4-2.6a51.6 51.6 0 0 0-53.4 12L75 256.3l47.2 46zm6.6-160.7a138.1 138.1 0 0 0 31 28.4l19.9 13.9a6.6 6.6 0 0 0 7.4 0l19.9-13.9c11.4-8.1 22.2-17 30.8-28.4a65.3 65.3 0 0 0 13.6-33.2c1.8-22-12.4-43.2-36-43.2a36.6 36.6 0 0 0-32 18.6A36.9 36.9 0 0 0 151.3 65c-23.5 0-38 21.1-36.2 43.2 1 12 6.3 23.6 13.7 33.3z"/></svg>