<?xml version="1.0" standalone="no"?>
<!DOCTYPE svg PUBLIC "-//W3C//DTD SVG 20010904//EN"
 "http://www.w3.org/TR/2001/REC-SVG-20010904/DTD/svg10.dtd">
<svg version="1.0" xmlns="http://www.w3.org/2000/svg"
 width="1533.000000pt" height="1533.000000pt" viewBox="0 0 1533.000000 1533.000000"
 preserveAspectRatio="xMidYMid meet">
<metadata>
Created by potrace 1.11, written by Peter Selinger 2001-2013
</metadata>
<g transform="translate(0.000000,1533.000000) scale(0.100000,-0.100000)"
fill="#000000" stroke="none">
<path d="M7288 15325 c-1 -1 -48 -5 -103 -9 -281 -19 -300 -20 -600 -61 -16
-2 -52 -7 -80 -10 -27 -4 -57 -8 -65 -10 -8 -2 -30 -7 -47 -10 -72 -11 -89
-14 -118 -19 -16 -3 -41 -8 -55 -11 -14 -3 -41 -8 -60 -11 -118 -19 -469 -106
-667 -165 -334 -99 -605 -198 -938 -345 -22 -9 -42 -18 -45 -19 -52 -16 -556
-273 -590 -300 -8 -6 -23 -15 -32 -18 -48 -17 -584 -357 -668 -424 -8 -6 -62
-46 -120 -89 -200 -147 -485 -383 -645 -533 -177 -168 -455 -455 -567 -585
-18 -22 -42 -49 -53 -61 -11 -12 -36 -41 -55 -66 -19 -24 -37 -46 -40 -49 -13
-11 -162 -202 -256 -330 -97 -131 -354 -512 -354 -525 0 -4 -13 -25 -28 -48
-26 -38 -124 -208 -201 -350 -284 -519 -537 -1182 -687 -1802 -37 -155 -41
-171 -49 -218 -3 -15 -12 -58 -20 -95 -7 -37 -23 -121 -34 -187 -12 -66 -23
-129 -25 -140 -2 -11 -7 -47 -11 -80 -4 -32 -8 -66 -10 -75 -2 -8 -6 -44 -9
-80 -4 -36 -9 -76 -11 -90 -4 -22 -9 -79 -21 -215 -15 -179 -19 -308 -19 -630
1 -329 6 -514 20 -640 2 -22 7 -71 11 -110 9 -102 13 -135 19 -185 3 -25 8
-63 10 -85 6 -47 16 -112 21 -140 2 -10 6 -37 9 -60 5 -36 16 -99 31 -182 3
-16 12 -62 21 -103 8 -41 16 -82 18 -90 11 -55 57 -256 60 -260 2 -4 6 -18 9
-32 7 -42 55 -215 89 -323 17 -55 32 -104 33 -110 16 -74 194 -555 264 -710 9
-22 34 -78 55 -125 75 -167 270 -546 360 -699 134 -227 309 -493 457 -693 45
-62 87 -118 93 -124 5 -6 21 -26 35 -44 21 -29 63 -81 130 -164 8 -10 20 -23
25 -30 6 -6 39 -45 74 -86 212 -249 540 -579 770 -776 19 -16 43 -38 55 -49
12 -11 44 -38 71 -60 28 -22 52 -43 55 -46 29 -34 428 -331 600 -445 127 -85
397 -254 406 -254 3 0 18 -8 32 -18 91 -63 596 -320 753 -382 26 -10 66 -27
90 -38 220 -98 560 -218 851 -302 120 -35 459 -121 528 -134 14 -3 84 -16 157
-30 166 -32 308 -55 478 -77 50 -6 99 -12 110 -14 11 -1 58 -6 105 -10 47 -4
99 -8 115 -10 216 -27 1111 -27 1278 0 12 2 59 6 104 10 45 3 90 7 100 9 10 2
47 7 83 11 69 7 88 9 160 20 25 4 56 8 70 10 24 4 233 39 295 50 17 3 37 8 45
10 8 2 29 7 45 9 17 3 100 22 185 41 85 20 165 38 178 41 12 2 77 20 145 40
67 19 129 37 138 39 23 5 273 86 384 125 83 29 279 104 350 135 17 7 75 32
130 55 304 130 690 330 950 493 192 120 512 338 595 404 8 6 71 55 138 108 68
53 134 105 145 115 65 54 191 163 202 173 6 7 40 37 75 67 70 61 394 381 480
476 152 166 413 478 480 574 13 19 29 40 35 46 19 20 247 349 312 451 231 361
429 737 590 1118 30 72 61 144 68 160 83 190 240 675 311 956 39 158 42 172
47 199 3 14 10 43 15 65 6 22 13 56 16 76 3 20 8 42 10 50 3 8 7 30 10 49 3
19 8 46 11 60 12 60 15 77 21 120 3 24 7 47 9 50 1 3 6 30 9 61 4 31 8 65 10
75 2 11 7 44 11 74 3 30 8 66 10 80 2 14 6 48 9 75 3 28 8 77 12 110 3 33 7
76 9 95 1 19 6 91 11 160 17 238 11 892 -11 1125 -2 22 -6 72 -9 110 -4 39 -8
86 -11 105 -2 19 -9 76 -15 125 -6 50 -13 106 -16 125 -10 67 -14 95 -19 120
-2 14 -7 41 -9 60 -3 19 -8 46 -11 60 -3 14 -7 39 -10 55 -5 32 -8 50 -32 165
-27 137 -31 154 -68 300 -77 306 -218 755 -285 905 -5 11 -27 66 -49 122 -22
56 -50 124 -62 150 -12 26 -27 62 -34 78 -53 122 -227 477 -245 500 -4 6 -24
42 -44 80 -20 39 -41 77 -46 85 -5 8 -44 74 -86 145 -390 660 -939 1322 -1521
1831 -202 176 -207 181 -396 327 -188 145 -198 152 -437 311 -313 208 -472
300 -810 469 -251 126 -325 159 -560 254 -207 84 -454 173 -550 199 -8 2 -60
17 -115 34 -187 58 -407 114 -605 155 -14 3 -47 10 -75 16 -27 6 -63 13 -80
15 -16 2 -61 11 -100 18 -38 8 -92 18 -120 22 -27 3 -59 8 -70 10 -11 2 -58 9
-105 14 -47 6 -96 13 -110 15 -14 2 -52 7 -85 10 -33 3 -76 8 -95 10 -19 2
-75 7 -125 11 -49 3 -106 8 -125 11 -39 5 -876 13 -882 8z m-733 -2727 c433
-73 822 -333 1051 -700 31 -52 41 -58 51 -30 9 24 88 136 143 202 85 102 202
208 313 284 38 25 70 46 72 46 2 0 29 15 62 33 97 55 287 128 373 144 14 2 44
8 66 13 132 30 427 32 547 5 12 -3 33 -7 47 -9 84 -13 209 -56 327 -111 231
-108 438 -294 594 -532 102 -156 200 -396 234 -568 31 -161 39 -244 39 -400 0
-183 -12 -278 -64 -500 -30 -128 -103 -352 -121 -369 -5 -6 -9 -16 -9 -23 0
-18 -93 -212 -148 -308 -202 -354 -571 -775 -967 -1104 -55 -46 -111 -92 -125
-104 -44 -37 -341 -259 -435 -325 -50 -35 -187 -131 -305 -213 -118 -83 -224
-157 -235 -165 -88 -63 -277 -192 -301 -206 -78 -44 -195 -36 -277 18 -33 21
-649 450 -753 524 -12 8 -61 42 -110 76 -197 135 -451 333 -614 479 -78 70
-403 398 -460 464 -30 35 -60 69 -65 75 -49 52 -186 233 -247 326 -180 276
-295 525 -373 815 -29 108 -35 138 -50 240 -4 28 -10 69 -15 93 -8 47 -6 387
3 440 4 18 9 52 12 75 3 23 17 85 30 137 119 476 406 852 801 1047 153 76 308
124 443 138 18 2 35 6 37 8 2 2 73 4 157 5 110 0 185 -5 272 -20z m5130 -5362
c121 -16 263 -90 348 -181 59 -63 127 -181 144 -250 45 -187 30 -321 -54 -479
-14 -27 -36 -61 -47 -74 -22 -26 -153 -179 -171 -198 -27 -30 -137 -156 -275
-314 -84 -96 -166 -190 -183 -209 -17 -19 -94 -107 -171 -195 -77 -89 -144
-166 -150 -172 -6 -6 -22 -24 -35 -40 -14 -16 -90 -103 -169 -194 -80 -91
-168 -191 -196 -224 -28 -32 -55 -63 -61 -70 -5 -6 -39 -45 -75 -86 -36 -41
-67 -77 -70 -80 -3 -3 -52 -59 -110 -125 -57 -66 -109 -125 -115 -131 -5 -6
-35 -39 -65 -75 -30 -35 -73 -84 -95 -109 -22 -24 -44 -50 -50 -56 -5 -6 -35
-40 -65 -75 -208 -241 -336 -347 -545 -452 -84 -42 -239 -100 -295 -111 -14
-2 -61 -12 -105 -22 -74 -16 -209 -17 -1754 -19 l-1675 -2 -280 -276 -281
-277 -41 43 c-35 36 -181 179 -739 722 -60 59 -240 234 -400 390 -159 155
-337 328 -395 385 -58 56 -167 163 -244 238 l-138 136 753 751 c778 774 840
832 1044 957 235 144 512 246 780 287 131 21 166 23 310 26 130 2 341 -14 393
-29 9 -3 33 -7 52 -10 19 -3 62 -13 95 -22 33 -8 70 -18 82 -20 12 -2 86 -27
165 -55 79 -28 170 -60 202 -71 59 -21 75 -21 1065 -22 782 -1 1011 -4 1028
-14 12 -6 29 -12 37 -12 24 0 104 -39 167 -81 104 -70 182 -175 230 -309 19
-53 23 -86 23 -180 1 -102 -3 -124 -28 -193 -67 -184 -203 -318 -386 -380 -64
-21 -75 -22 -715 -24 -441 -2 -664 -7 -692 -14 -120 -32 -193 -177 -152 -300
23 -68 89 -132 154 -149 11 -3 324 -5 695 -5 529 0 687 3 730 13 167 41 298
96 414 174 63 44 204 179 252 243 127 170 205 386 214 595 0 14 18 44 43 71
56 61 88 97 177 199 41 47 79 90 85 96 20 22 72 81 175 199 58 66 108 122 111
125 3 3 36 41 74 85 63 72 113 130 155 175 8 9 44 50 80 91 36 41 69 79 75 85
5 6 37 41 69 78 160 180 361 254 601 222z"/>
</g>
</svg>
